<svg id="Layer_1" data-name="Layer 1" xmlns="http://www.w3.org/2000/svg" xmlns:xlink="http://www.w3.org/1999/xlink" viewBox="0 0 650 100"><defs><style>.cls-1{fill:none;stroke:#1bb26a;stroke-miterlimit:10;stroke-width:0.5px;}.cls-2{clip-path:url(#clip-path);}.cls-3{clip-path:url(#clip-path-2);}.cls-4{clip-path:url(#clip-path-3);}.cls-5{clip-path:url(#clip-path-4);}.cls-6{clip-path:url(#clip-path-5);}.cls-7{fill:#424242;}</style><clipPath id="clip-path"><path class="cls-1" d="M127.06,46.16v3.18c0,2.92-1.67,4.59-4.51,4.59-6.68,0-9.68,1.5-9.68,4.08v9.44a4.25,4.25,0,0,1-4.34,4.5h-3c-2.83,0-4.5-1.58-4.5-4.42,0,0-8.68,5.76-25.88,5.76C54,73.29,34.5,60.94,34.5,42.41c0-21.53,20.45-30.8,39.39-30.8S101,19.87,101,19.87V18.12c0-2.92,1.67-4.59,4.5-4.59h3a4.32,4.32,0,0,1,4.34,4.59V33.9a4.28,4.28,0,0,1-4.34,4.59h-2.59c-5.34,0-5.76-2.42-7.85-6.18-2.83-5.26-10.26-8.26-21-8.26s-22.78,6-22.78,18.11S66.13,60.77,78.4,60.77c14.52,0,21.95-6.84,21.95-6.84h-11c-2.84,0-4.42-1.67-4.42-4.59V46.16a4.25,4.25,0,0,1,4.42-4.42h33.22A4.32,4.32,0,0,1,127.06,46.16Z"/></clipPath><clipPath id="clip-path-2"><path class="cls-1" d="M167,42.07V31.22c0-3.67-2.34-5.84-8.68-5.84-2.84,0-4.42-1.67-4.42-4.5v-3a4.25,4.25,0,0,1,4.5-4.34h36.39a4.3,4.3,0,0,1,4.51,4.34v3c0,2.92-1.67,4.5-4.51,4.5-6.34,0-8,1.67-8,5.84V43.16c0,12.85,13,16.69,21.78,16.69s21.78-3.75,21.78-16.52V31.22c0-4.17-1.58-5.84-8-5.84-2.84,0-4.51-1.58-4.51-4.5v-3a4.3,4.3,0,0,1,4.51-4.34h33.55a4.3,4.3,0,0,1,4.51,4.34v3a4.13,4.13,0,0,1-4.51,4.5c-5,0-8.68,1.92-8.68,5.84V42.07c0,13.94-10.1,31.13-40.06,31.13S167,56,167,42.07Z"/></clipPath><clipPath id="clip-path-3"><path class="cls-1" d="M345.05,20.88c0,2.92-1.67,4.5-4.51,4.5-11.68.17-11.68,2.17-11.68,5.84v23c0,3.67,0,5.75,11.68,5.92,2.84,0,4.51,1.59,4.51,4.43v3.08A4.3,4.3,0,0,1,340.54,72H298.48A4.25,4.25,0,0,1,294,67.61V64.53c0-2.84,1.59-4.43,4.51-4.43,11.6-.17,11.6-2.25,11.6-5.92v-23c0-3.67,0-5.67-11.69-5.84-2.83,0-4.42-1.58-4.42-4.5v-3a4.26,4.26,0,0,1,4.51-4.34h42.06a4.3,4.3,0,0,1,4.51,4.34Z"/></clipPath><clipPath id="clip-path-4"><path class="cls-1" d="M470.4,42.66c0,17.53-16.69,29.29-34,29.29H385a4.3,4.3,0,0,1-4.5-4.34V64.53c0-2.84,1.67-4.43,4.5-4.43,11.6-.17,11.6-2.25,11.6-5.92v-23c0-3.67,0-5.67-11.68-5.84-2.75,0-4.42-1.58-4.42-4.5v-3a4.3,4.3,0,0,1,4.5-4.34h49.33C458.13,13.53,470.4,28.89,470.4,42.66Zm-20.61.17c0-12.52-10.1-16.95-20.53-16.95h-6.43c-7.43,0-7.43,2.76-7.43,3.84v26c0,1,0,3.84,7.43,3.84h6.43C438.77,59.6,449.79,55.18,449.79,42.83Z"/></clipPath><clipPath id="clip-path-5"><path class="cls-1" d="M598.43,64.78c-.25,2.33-.42,4-.5,4.84-.34,2.75-2.51,3.67-4.76,3.67h-.25c-13,0-20.95-1-30.3-13.86-4.67-6.51-12.1-7.26-17.94-7.34h-6.43V55c0,3.67,0,4.92,11.69,5a4.13,4.13,0,0,1,4.5,4.51v3.08a4.3,4.3,0,0,1-4.5,4.34H507.87a4.24,4.24,0,0,1-4.5-4.34V64.53c0-2.84,1.58-4.51,4.5-4.51,11.6-.09,11.6-2.17,11.6-5.84v-23c0-3.67,0-5.67-11.68-5.84-2.84,0-4.42-1.67-4.42-4.5v-3a4.25,4.25,0,0,1,4.5-4.34h45.49c28.29,0,40,8.1,40,19.28,0,7.76-5.93,14-18.28,17.19a37.37,37.37,0,0,1,5.51,4.51c4.92,4.92,11,5.76,14.43,6C597.84,60.77,598.68,62.44,598.43,64.78ZM538.25,37.23c0,.42,0,2.67,5.51,2.67H557c7.35,0,14.61-2.16,14.61-7.09s-7.51-7.18-14.61-7.18H543.76c-5.51,0-5.51,2.26-5.51,2.67Z"/></clipPath></defs><title>GuidrLogo [Recovered]</title><g class="cls-2"><rect class="cls-1" x="19.06" y="89.5" width="613.95" height="0.35"/><rect class="cls-1" x="19.06" y="85.3" width="613.95" height="0.35"/><rect class="cls-1" x="19.06" y="81.09" width="613.95" height="0.35"/><rect class="cls-1" x="19.06" y="76.89" width="613.95" height="0.35"/><rect class="cls-1" x="19.06" y="72.68" width="613.95" height="0.35"/><rect class="cls-1" x="19.06" y="68.48" width="613.95" height="0.35"/><rect class="cls-1" x="19.06" y="64.27" width="613.95" height="0.35"/><rect class="cls-1" x="19.06" y="60.07" width="613.95" height="0.35"/><rect class="cls-1" x="19.06" y="55.86" width="613.95" height="0.35"/><rect class="cls-1" x="19.06" y="51.66" width="613.95" height="0.35"/><rect class="cls-1" x="19.06" y="47.45" width="613.95" height="0.35"/><rect class="cls-1" x="19.06" y="43.25" width="613.95" height="0.35"/><rect class="cls-1" x="19.06" y="39.04" width="613.95" height="0.35"/><rect class="cls-1" x="19.06" y="34.84" width="613.95" height="0.35"/><rect class="cls-1" x="19.06" y="30.63" width="613.95" height="0.35"/><rect class="cls-1" x="19.06" y="26.43" width="613.95" height="0.35"/><rect class="cls-1" x="19.06" y="22.22" width="613.95" height="0.35"/><rect class="cls-1" x="19.06" y="18.02" width="613.95" height="0.35"/><rect class="cls-1" x="19.06" y="13.81" width="613.95" height="0.35"/><rect class="cls-1" x="19.06" y="9.61" width="613.95" height="0.35"/><rect class="cls-1" x="19.06" y="5.4" width="613.95" height="0.35"/></g><path class="cls-1" d="M127.06,46.16v3.18c0,2.92-1.67,4.59-4.51,4.59-6.68,0-9.68,1.5-9.68,4.08v9.44a4.25,4.25,0,0,1-4.34,4.5h-3c-2.83,0-4.5-1.58-4.5-4.42,0,0-8.68,5.76-25.88,5.76C54,73.29,34.5,60.94,34.5,42.41c0-21.53,20.45-30.8,39.39-30.8S101,19.87,101,19.87V18.12c0-2.92,1.67-4.59,4.5-4.59h3a4.32,4.32,0,0,1,4.34,4.59V33.9a4.28,4.28,0,0,1-4.34,4.59h-2.59c-5.34,0-5.76-2.42-7.85-6.18-2.83-5.26-10.26-8.26-21-8.26s-22.78,6-22.78,18.11S66.13,60.77,78.4,60.77c14.52,0,21.95-6.84,21.95-6.84h-11c-2.84,0-4.42-1.67-4.42-4.59V46.16a4.25,4.25,0,0,1,4.42-4.42h33.22A4.32,4.32,0,0,1,127.06,46.16Z"/><g class="cls-3"><rect class="cls-1" x="19.06" y="86.7" width="613.95" height="0.35"/><rect class="cls-1" x="19.06" y="82.5" width="613.95" height="0.35"/><rect class="cls-1" x="19.06" y="78.29" width="613.95" height="0.35"/><rect class="cls-1" x="19.06" y="74.09" width="613.95" height="0.35"/><rect class="cls-1" x="19.06" y="69.88" width="613.95" height="0.35"/><rect class="cls-1" x="19.06" y="65.68" width="613.95" height="0.35"/><rect class="cls-1" x="19.06" y="61.47" width="613.95" height="0.35"/><rect class="cls-1" x="19.06" y="57.26" width="613.95" height="0.35"/><rect class="cls-1" x="19.06" y="53.06" width="613.95" height="0.35"/><rect class="cls-1" x="19.06" y="48.85" width="613.95" height="0.35"/><rect class="cls-1" x="19.06" y="44.65" width="613.95" height="0.35"/><rect class="cls-1" x="19.06" y="40.44" width="613.95" height="0.35"/><rect class="cls-1" x="19.06" y="36.24" width="613.95" height="0.35"/><rect class="cls-1" x="19.06" y="32.03" width="613.95" height="0.35"/><rect class="cls-1" x="19.06" y="27.83" width="613.95" height="0.35"/><rect class="cls-1" x="19.06" y="23.62" width="613.95" height="0.35"/><rect class="cls-1" x="19.06" y="19.42" width="613.95" height="0.35"/><rect class="cls-1" x="19.06" y="15.21" width="613.95" height="0.35"/><rect class="cls-1" x="19.06" y="11.01" width="613.95" height="0.35"/><rect class="cls-1" x="19.06" y="6.8" width="613.95" height="0.35"/><rect class="cls-1" x="19.06" y="2.6" width="613.95" height="0.35"/></g><path class="cls-1" d="M167,42.07V31.22c0-3.67-2.34-5.84-8.68-5.84-2.84,0-4.42-1.67-4.42-4.5v-3a4.25,4.25,0,0,1,4.5-4.34h36.39a4.3,4.3,0,0,1,4.51,4.34v3c0,2.92-1.67,4.5-4.51,4.5-6.34,0-8,1.67-8,5.84V43.16c0,12.85,13,16.69,21.78,16.69s21.78-3.75,21.78-16.52V31.22c0-4.17-1.58-5.84-8-5.84-2.84,0-4.51-1.58-4.51-4.5v-3a4.3,4.3,0,0,1,4.51-4.34h33.55a4.3,4.3,0,0,1,4.51,4.34v3a4.13,4.13,0,0,1-4.51,4.5c-5,0-8.68,1.92-8.68,5.84V42.07c0,13.94-10.1,31.13-40.06,31.13S167,56,167,42.07Z"/><g class="cls-4"><rect class="cls-1" x="19.06" y="86.7" width="613.95" height="0.35"/><rect class="cls-1" x="19.06" y="82.5" width="613.95" height="0.35"/><rect class="cls-1" x="19.06" y="78.29" width="613.95" height="0.35"/><rect class="cls-1" x="19.06" y="74.09" width="613.95" height="0.35"/><rect class="cls-1" x="19.06" y="69.88" width="613.95" height="0.35"/><rect class="cls-1" x="19.06" y="65.68" width="613.95" height="0.35"/><rect class="cls-1" x="19.06" y="61.47" width="613.95" height="0.35"/><rect class="cls-1" x="19.06" y="57.26" width="613.95" height="0.35"/><rect class="cls-1" x="19.06" y="53.06" width="613.95" height="0.35"/><rect class="cls-1" x="19.06" y="48.85" width="613.95" height="0.35"/><rect class="cls-1" x="19.06" y="44.65" width="613.95" height="0.35"/><rect class="cls-1" x="19.06" y="40.44" width="613.95" height="0.35"/><rect class="cls-1" x="19.06" y="36.24" width="613.95" height="0.35"/><rect class="cls-1" x="19.06" y="32.03" width="613.95" height="0.35"/><rect class="cls-1" x="19.06" y="27.83" width="613.95" height="0.35"/><rect class="cls-1" x="19.06" y="23.62" width="613.95" height="0.35"/><rect class="cls-1" x="19.06" y="19.42" width="613.95" height="0.35"/><rect class="cls-1" x="19.06" y="15.21" width="613.95" height="0.35"/><rect class="cls-1" x="19.06" y="11.01" width="613.95" height="0.35"/><rect class="cls-1" x="19.06" y="6.8" width="613.95" height="0.35"/><rect class="cls-1" x="19.06" y="2.6" width="613.95" height="0.35"/></g><path class="cls-1" d="M345.05,20.88c0,2.92-1.67,4.5-4.51,4.5-11.68.17-11.68,2.17-11.68,5.84v23c0,3.67,0,5.75,11.68,5.92,2.84,0,4.51,1.59,4.51,4.43v3.08A4.3,4.3,0,0,1,340.54,72H298.48A4.25,4.25,0,0,1,294,67.61V64.53c0-2.84,1.59-4.43,4.51-4.43,11.6-.17,11.6-2.25,11.6-5.92v-23c0-3.67,0-5.67-11.69-5.84-2.83,0-4.42-1.58-4.42-4.5v-3a4.26,4.26,0,0,1,4.51-4.34h42.06a4.3,4.3,0,0,1,4.51,4.34Z"/><g class="cls-5"><rect class="cls-1" x="19.06" y="86.7" width="613.95" height="0.35"/><rect class="cls-1" x="19.06" y="82.5" width="613.95" height="0.35"/><rect class="cls-1" x="19.06" y="78.29" width="613.95" height="0.35"/><rect class="cls-1" x="19.06" y="74.09" width="613.95" height="0.35"/><rect class="cls-1" x="19.06" y="69.88" width="613.95" height="0.35"/><rect class="cls-1" x="19.06" y="65.68" width="613.95" height="0.35"/><rect class="cls-1" x="19.06" y="61.47" width="613.95" height="0.35"/><rect class="cls-1" x="19.06" y="57.26" width="613.95" height="0.35"/><rect class="cls-1" x="19.06" y="53.06" width="613.95" height="0.35"/><rect class="cls-1" x="19.06" y="48.85" width="613.95" height="0.35"/><rect class="cls-1" x="19.06" y="44.65" width="613.95" height="0.35"/><rect class="cls-1" x="19.06" y="40.44" width="613.95" height="0.35"/><rect class="cls-1" x="19.06" y="36.24" width="613.95" height="0.35"/><rect class="cls-1" x="19.06" y="32.03" width="613.95" height="0.35"/><rect class="cls-1" x="19.06" y="27.83" width="613.95" height="0.35"/><rect class="cls-1" x="19.06" y="23.62" width="613.95" height="0.35"/><rect class="cls-1" x="19.06" y="19.42" width="613.95" height="0.35"/><rect class="cls-1" x="19.06" y="15.21" width="613.95" height="0.35"/><rect class="cls-1" x="19.06" y="11.01" width="613.95" height="0.35"/><rect class="cls-1" x="19.06" y="6.8" width="613.95" height="0.35"/><rect class="cls-1" x="19.06" y="2.6" width="613.95" height="0.35"/></g><path class="cls-1" d="M470.4,42.66c0,17.53-16.69,29.29-34,29.29H385a4.3,4.3,0,0,1-4.5-4.34V64.53c0-2.84,1.67-4.43,4.5-4.43,11.6-.17,11.6-2.25,11.6-5.92v-23c0-3.67,0-5.67-11.68-5.84-2.75,0-4.42-1.58-4.42-4.5v-3a4.3,4.3,0,0,1,4.5-4.34h49.33C458.13,13.53,470.4,28.89,470.4,42.66Zm-20.61.17c0-12.52-10.1-16.95-20.53-16.95h-6.43c-7.43,0-7.43,2.76-7.43,3.84v26c0,1,0,3.84,7.43,3.84h6.43C438.77,59.6,449.79,55.18,449.79,42.83Z"/><g class="cls-6"><rect class="cls-1" x="19.06" y="86.7" width="613.95" height="0.35"/><rect class="cls-1" x="19.06" y="82.5" width="613.95" height="0.35"/><rect class="cls-1" x="19.06" y="78.29" width="613.95" height="0.35"/><rect class="cls-1" x="19.06" y="74.09" width="613.95" height="0.35"/><rect class="cls-1" x="19.06" y="69.88" width="613.95" height="0.35"/><rect class="cls-1" x="19.06" y="65.68" width="613.95" height="0.35"/><rect class="cls-1" x="19.06" y="61.47" width="613.95" height="0.35"/><rect class="cls-1" x="19.06" y="57.26" width="613.95" height="0.35"/><rect class="cls-1" x="19.06" y="53.06" width="613.95" height="0.35"/><rect class="cls-1" x="19.06" y="48.85" width="613.95" height="0.35"/><rect class="cls-1" x="19.06" y="44.65" width="613.95" height="0.35"/><rect class="cls-1" x="19.06" y="40.44" width="613.95" height="0.35"/><rect class="cls-1" x="19.06" y="36.24" width="613.95" height="0.35"/><rect class="cls-1" x="19.06" y="32.03" width="613.95" height="0.35"/><rect class="cls-1" x="19.06" y="27.83" width="613.95" height="0.35"/><rect class="cls-1" x="19.06" y="23.62" width="613.95" height="0.35"/><rect class="cls-1" x="19.06" y="19.42" width="613.95" height="0.35"/><rect class="cls-1" x="19.06" y="15.21" width="613.95" height="0.35"/><rect class="cls-1" x="19.06" y="11.01" width="613.95" height="0.35"/><rect class="cls-1" x="19.06" y="6.8" width="613.95" height="0.35"/><rect class="cls-1" x="19.06" y="2.6" width="613.95" height="0.35"/></g><path class="cls-1" d="M598.43,64.78c-.25,2.33-.42,4-.5,4.84-.34,2.75-2.51,3.67-4.76,3.67h-.25c-13,0-20.95-1-30.3-13.86-4.67-6.51-12.1-7.26-17.94-7.34h-6.43V55c0,3.67,0,4.92,11.69,5a4.13,4.13,0,0,1,4.5,4.51v3.08a4.3,4.3,0,0,1-4.5,4.34H507.87a4.24,4.24,0,0,1-4.5-4.34V64.53c0-2.84,1.58-4.51,4.5-4.51,11.6-.09,11.6-2.17,11.6-5.84v-23c0-3.67,0-5.67-11.68-5.84-2.84,0-4.42-1.67-4.42-4.5v-3a4.25,4.25,0,0,1,4.5-4.34h45.49c28.29,0,40,8.1,40,19.28,0,7.76-5.93,14-18.28,17.19a37.37,37.37,0,0,1,5.51,4.51c4.92,4.92,11,5.76,14.43,6C597.84,60.77,598.68,62.44,598.43,64.78ZM538.25,37.23c0,.42,0,2.67,5.51,2.67H557c7.35,0,14.61-2.16,14.61-7.09s-7.51-7.18-14.61-7.18H543.76c-5.51,0-5.51,2.26-5.51,2.67Z"/><path class="cls-7" d="M132.27,41.37v3.17c0,2.92-1.67,4.59-4.51,4.59-6.68,0-9.68,1.5-9.68,4.09v9.43a4.26,4.26,0,0,1-4.34,4.51h-3c-2.83,0-4.5-1.59-4.5-4.42,0,0-8.68,5.76-25.88,5.76C59.23,68.5,39.7,56.14,39.7,37.61c0-21.53,20.45-30.8,39.4-30.8s27.13,8.27,27.13,8.27V13.33c0-2.93,1.67-4.6,4.5-4.6h3a4.33,4.33,0,0,1,4.34,4.6V29.1a4.28,4.28,0,0,1-4.34,4.59h-2.59c-5.34,0-5.76-2.42-7.85-6.18-2.83-5.25-10.26-8.26-21-8.26s-22.79,6-22.79,18.11S71.34,56,83.61,56c14.52,0,22-6.85,22-6.85h-11c-2.84,0-4.42-1.67-4.42-4.59V41.37A4.24,4.24,0,0,1,94.54,37h33.22A4.32,4.32,0,0,1,132.27,41.37Z"/><path class="cls-7" d="M172.15,37.28V26.43c0-3.67-2.33-5.84-8.68-5.84-2.83,0-4.42-1.67-4.42-4.51v-3a4.26,4.26,0,0,1,4.51-4.34H200a4.3,4.3,0,0,1,4.5,4.34v3c0,2.92-1.66,4.51-4.5,4.51-6.35,0-8,1.67-8,5.84V38.36c0,12.86,13,16.7,21.79,16.7S235.5,51.3,235.5,38.53V26.43c0-4.17-1.58-5.84-8-5.84-2.84,0-4.51-1.59-4.51-4.51v-3a4.3,4.3,0,0,1,4.51-4.34H261a4.3,4.3,0,0,1,4.51,4.34v3A4.13,4.13,0,0,1,261,20.59c-5,0-8.68,1.92-8.68,5.84V37.28c0,13.94-10.1,31.13-40.06,31.13S172.15,51.22,172.15,37.28Z"/><path class="cls-7" d="M350.26,16.08c0,2.92-1.67,4.51-4.51,4.51-11.69.16-11.69,2.17-11.69,5.84v23c0,3.67,0,5.76,11.69,5.93,2.84,0,4.51,1.58,4.51,4.42v3.09a4.3,4.3,0,0,1-4.51,4.34H303.68a4.25,4.25,0,0,1-4.5-4.34V59.73c0-2.84,1.58-4.42,4.5-4.42,11.6-.17,11.6-2.26,11.6-5.93v-23c0-3.67,0-5.68-11.68-5.84-2.84,0-4.42-1.59-4.42-4.51v-3a4.25,4.25,0,0,1,4.5-4.34h42.07a4.3,4.3,0,0,1,4.51,4.34Z"/><path class="cls-7" d="M475.61,37.86c0,17.53-16.69,29.3-34,29.3H390.23a4.3,4.3,0,0,1-4.51-4.34V59.73c0-2.84,1.67-4.42,4.51-4.42,11.6-.17,11.6-2.26,11.6-5.93v-23c0-3.67,0-5.68-11.69-5.84-2.75,0-4.42-1.59-4.42-4.51v-3a4.3,4.3,0,0,1,4.51-4.34h49.33C463.34,8.73,475.61,24.09,475.61,37.86ZM455,38c0-12.52-10.1-16.94-20.54-16.94H428c-7.43,0-7.43,2.75-7.43,3.84V51c0,1,0,3.84,7.43,3.84h6.42C444,54.81,455,50.38,455,38Z"/><path class="cls-7" d="M603.64,60c-.25,2.34-.42,4-.5,4.84-.34,2.76-2.51,3.68-4.76,3.68h-.25c-13,0-21-1-30.3-13.86-4.67-6.51-12.1-7.26-17.94-7.35h-6.43v2.93c0,3.67,0,4.92,11.69,5a4.13,4.13,0,0,1,4.5,4.51v3.09a4.3,4.3,0,0,1-4.5,4.34H513.08a4.26,4.26,0,0,1-4.51-4.34V59.73c0-2.84,1.59-4.51,4.51-4.51,11.6-.08,11.6-2.17,11.6-5.84v-23c0-3.67,0-5.68-11.69-5.84-2.83,0-4.42-1.67-4.42-4.51v-3a4.26,4.26,0,0,1,4.51-4.34h45.49c28.29,0,40,8.1,40,19.28,0,7.77-5.93,14-18.28,17.2a36.75,36.75,0,0,1,5.51,4.51c4.92,4.92,11,5.75,14.44,6C603.05,56,603.89,57.65,603.64,60ZM543.46,32.44c0,.42,0,2.67,5.51,2.67h13.27c7.34,0,14.61-2.17,14.61-7.1s-7.52-7.17-14.61-7.17H549c-5.51,0-5.51,2.25-5.51,2.67Z"/></svg>